<svg width="38" height="34" viewBox="0 0 38 34" fill="none" xmlns="http://www.w3.org/2000/svg">
<g id="Iconsax/Linear/facebook">
<path id="Vector" d="M22.1667 13.175V17.2833H26.2833C26.6 17.2833 26.7583 17.5667 26.7583 17.85L26.125 20.5417C26.125 20.6833 25.8083 20.825 25.65 20.825H22.1667V31.1667H17.4167V20.9667H14.725C14.4083 20.9667 14.25 20.825 14.25 20.5417V17.85C14.25 17.5667 14.4083 17.425 14.725 17.425H17.4167V12.75C17.4167 10.3417 19.475 8.5 22.1667 8.5H26.4417C26.7583 8.5 26.9167 8.64167 26.9167 8.925V12.325C26.9167 12.6083 26.7583 12.75 26.4417 12.75H22.6417C22.325 12.75 22.1667 12.8917 22.1667 13.175V13.175Z" stroke="black" stroke-width="1.5" stroke-miterlimit="10" stroke-linecap="round"/>
<path id="Vector_2" d="M23.75 31.1667H14.25C6.33332 31.1667 3.16666 28.3333 3.16666 21.25V12.75C3.16666 5.66666 6.33332 2.83333 14.25 2.83333H23.75C31.6667 2.83333 34.8333 5.66666 34.8333 12.75V21.25C34.8333 28.3333 31.6667 31.1667 23.75 31.1667Z" stroke="black" stroke-width="1.5" stroke-linecap="round" stroke-linejoin="round"/>
</g>
</svg>
