<svg width="38" height="34" viewBox="0 0 38 34" fill="none" xmlns="http://www.w3.org/2000/svg">
<g id="Iconsax/Linear/instagram">
<path id="Vector" d="M14.25 31.1667H23.75C31.6667 31.1667 34.8333 28.3333 34.8333 21.25V12.75C34.8333 5.66666 31.6667 2.83333 23.75 2.83333H14.25C6.33332 2.83333 3.16666 5.66666 3.16666 12.75V21.25C3.16666 28.3333 6.33332 31.1667 14.25 31.1667Z" stroke="black" stroke-width="1.5" stroke-linecap="round" stroke-linejoin="round"/>
<path id="Vector_2" d="M19 21.9583C19.7278 21.9583 20.4484 21.8301 21.1207 21.5809C21.7931 21.3317 22.404 20.9665 22.9186 20.5061C23.4332 20.0457 23.8413 19.499 24.1198 18.8975C24.3983 18.2959 24.5417 17.6511 24.5417 17C24.5417 16.3489 24.3983 15.7041 24.1198 15.1025C23.8413 14.501 23.4332 13.9544 22.9186 13.4939C22.404 13.0335 21.7931 12.6683 21.1207 12.4191C20.4484 12.1699 19.7278 12.0417 19 12.0417C17.5303 12.0417 16.1207 12.5641 15.0815 13.4939C14.0422 14.4238 13.4583 15.685 13.4583 17C13.4583 18.315 14.0422 19.5762 15.0815 20.5061C16.1207 21.4359 17.5303 21.9583 19 21.9583V21.9583Z" stroke="black" stroke-width="1.5" stroke-linecap="round" stroke-linejoin="round"/>
<path id="Vector_3" d="M27.9237 9.91667H27.9422" stroke="black" stroke-width="2" stroke-linecap="round" stroke-linejoin="round"/>
</g>
</svg>
